<?xml version="1.0" encoding="UTF-8" standalone="no"?>
<!DOCTYPE svg PUBLIC "-//W3C//DTD SVG 1.1//EN" "http://www.w3.org/Graphics/SVG/1.1/DTD/svg11.dtd">
<svg width="100%" height="100%" viewBox="0 0 50 50" version="1.1" xmlns="http://www.w3.org/2000/svg" xmlns:xlink="http://www.w3.org/1999/xlink" xml:space="preserve" xmlns:serif="http://www.serif.com/" style="fill-rule:evenodd;clip-rule:evenodd;stroke-linejoin:round;stroke-miterlimit:2;">
    <g transform="matrix(1.08898,0,0,1.08898,-2.4596,-1.98955)">
        <path d="M47.5,2.594L43.469,5.156L32.125,12.344L33.313,9.719L34.625,6.813L31.875,8.438C31.875,8.438 26.961,11.371 21.344,14.969C15.727,18.566 9.465,22.777 6.594,25.594C1.711,30.477 1.711,38.43 6.594,43.313C11.477,48.195 19.43,48.195 24.313,43.313C26.605,41.074 29.883,36.18 32.719,31.75C35.555,27.32 37.875,23.406 37.875,23.406L39.281,20.969L36.656,21.969L33.688,23.063L44.844,6.563L47.5,2.594ZM40.469,9.406L30.281,24.531L28.531,27.125L31.438,26.031L34.625,24.844C33.781,26.25 33.016,27.586 31.031,30.688C28.219,35.082 24.813,40.012 22.906,41.875L22.906,41.906C18.789,46.023 12.117,46.023 8,41.906C3.883,37.789 3.883,31.117 8,27C10.527,24.52 16.824,20.234 22.406,16.656C26.512,14.027 28.43,12.895 30.125,11.875L28.875,14.594L27.5,17.656L30.344,15.844L40.469,9.406ZM15,28C11.156,28 8,31.156 8,35C8,38.844 11.156,42 15,42C18.844,42 22,38.844 22,35C22,31.156 18.844,28 15,28ZM15,30C17.754,30 20,32.246 20,35C20,37.754 17.754,40 15,40C12.246,40 10,37.754 10,35C10,32.246 12.246,30 15,30Z" style="fill-rule:nonzero;"/>
    </g>
</svg>
