<?xml version="1.0"?><svg fill="#000000" xmlns="http://www.w3.org/2000/svg"  viewBox="0 0 50 50" width="50px" height="50px">    <path d="M 37.980469 2.9902344 A 1.0001 1.0001 0 0 0 37.292969 3.2929688 C 36.190374 4.3955636 35.25494 6.4387436 34.431641 9.1992188 C 33.629749 11.887914 33.052074 15.219071 33.021484 18.728516 C 30.281056 22.441867 30.089787 27.077843 30.076172 28.193359 C 27.866316 28.442195 26.072196 29.341086 24.708984 30.472656 C 23.143598 31.772048 21.924585 33.176413 20.734375 33.892578 C 18.360915 35.320942 15.558998 36.610773 15.066406 36.839844 C 14.732381 36.569054 14.39044 36.247373 13.480469 35.748047 C 12.75536 35.350121 11.950182 35.215208 11.271484 35.119141 C 10.761099 35.046901 10.533405 35.040167 10.347656 35.029297 L 7.5546875 33.167969 A 1.0001 1.0001 0 0 0 7 33 C 7 33 6.5080483 32.989247 6.0097656 33.269531 C 5.511483 33.549815 5 34.266204 5 35.125 C 5 35.603125 5.1405604 35.747686 5.2539062 35.953125 C 5.3672521 36.158564 5.5019077 36.360736 5.65625 36.576172 C 5.9649346 37.007044 6.3500952 37.485074 6.734375 37.941406 C 7.1156661 38.394189 7.2084345 38.483235 7.4941406 38.802734 L 5.6972656 40 L 2 40 A 1.0001 1.0001 0 0 0 1.0292969 41.242188 L 2.0292969 45.242188 A 1.0001 1.0001 0 0 0 2.6816406 45.947266 L 5.6523438 46.947266 A 1.0001 1.0001 0 0 0 6.1347656 46.986328 L 12.164062 45.986328 A 1.0001 1.0001 0 0 0 12.599609 45.800781 L 16.529297 42.853516 C 16.570337 42.829876 19.814251 40.963733 25.300781 39.984375 C 28.875074 39.346108 31.523182 38.455333 33.296875 37.712891 C 34.183721 37.341669 34.850992 37.007632 35.306641 36.761719 C 35.534465 36.638762 35.710578 36.537533 35.830078 36.466797 C 35.882728 36.435627 35.919088 36.413444 35.947266 36.396484 C 36.474506 36.232067 37.794894 35.896068 38.580078 34.322266 C 39.063933 33.353409 39.283259 32.438889 39.550781 31.671875 C 39.818304 30.904861 40.10571 30.293504 40.697266 29.716797 C 45.803714 24.738009 48 20.190476 48 13 A 1.0001 1.0001 0 0 0 47 11.986328 A 1 1 0 0 0 46 11 A 1 1 0 0 0 45 12 A 1 1 0 0 0 46 13 C 46 14.481361 45.908571 15.808792 45.724609 17.039062 A 1 1 0 0 0 45 18 A 1 1 0 0 0 45.382812 18.785156 C 44.500858 22.321113 42.60912 25.059477 39.302734 28.283203 C 38.42029 29.143496 37.972087 30.124936 37.662109 31.013672 C 37.534995 31.378122 37.429259 31.71857 37.320312 32.054688 A 1 1 0 0 0 37 32 A 1 1 0 0 0 36 33 A 1 1 0 0 0 36.521484 33.876953 C 36.160968 34.401577 35.900324 34.309306 35.179688 34.552734 A 1.0001 1.0001 0 0 0 35.175781 34.554688 C 35.174681 34.555078 35.043458 34.610394 35.023438 34.621094 C 35.003417 34.631794 34.992182 34.636928 34.982422 34.642578 C 34.962912 34.653878 34.949724 34.662175 34.933594 34.671875 C 34.901334 34.691265 34.861744 34.715784 34.810547 34.746094 C 34.708152 34.806704 34.558801 34.893269 34.357422 35.001953 C 34.33679 35.013088 34.30101 35.029425 34.279297 35.041016 A 1 1 0 0 0 34 35 A 1 1 0 0 0 33.074219 35.623047 C 32.891342 35.705375 32.734331 35.780863 32.523438 35.869141 C 30.890307 36.552745 28.40749 37.389398 25.021484 38 A 1 1 0 0 0 25 38 A 1 1 0 0 0 24.583984 38.091797 C 22.809246 38.427596 21.262334 38.850276 19.958984 39.279297 A 1 1 0 0 0 20 39 A 1 1 0 0 0 19 38 A 1 1 0 0 0 18 39 A 1 1 0 0 0 18.429688 39.820312 C 16.595245 40.523415 15.551915 41.105669 15.521484 41.123047 C 15.521025 41.123309 15.5 41.132813 15.5 41.132812 A 1.0001 1.0001 0 0 0 15.451172 41.164062 A 1 1 0 0 0 15.425781 41.181641 A 1.0001 1.0001 0 0 0 15.400391 41.199219 A 1 1 0 0 0 15.355469 41.234375 L 11.595703 44.052734 L 7.9394531 44.660156 A 1 1 0 0 0 7 44 A 1 1 0 0 0 6.0019531 44.955078 L 3.8378906 44.226562 L 3.4960938 42.863281 A 1 1 0 0 0 4 43 A 1 1 0 0 0 5 42 L 6 42 A 1.0001 1.0001 0 0 0 6.5546875 41.832031 L 9.5546875 39.832031 A 1.0001 1.0001 0 0 0 9.734375 38.322266 C 9.734375 38.322266 8.9970654 37.520929 8.265625 36.652344 C 7.8999048 36.218051 7.5350654 35.766393 7.28125 35.412109 C 7.268899 35.394869 7.2657193 35.387874 7.2539062 35.371094 L 9.4453125 36.832031 A 1.0001 1.0001 0 0 0 9.9570312 37 C 9.9570312 37 10.414932 37.018179 10.990234 37.099609 C 11.565537 37.181039 12.26064 37.359879 12.519531 37.501953 C 13.549072 38.06689 14.34375 38.753906 14.34375 38.753906 A 1.0001 1.0001 0 0 0 15.417969 38.908203 C 15.417969 38.908203 18.398589 37.527198 21.001953 36.037109 A 1 1 0 0 0 22 37 A 1 1 0 0 0 23 36 A 1 1 0 0 0 22.482422 35.125 C 23.081207 34.685144 23.630613 34.186948 24.167969 33.679688 A 1 1 0 0 0 25 34.125 A 1 1 0 0 0 26 33.125 A 1 1 0 0 0 25.619141 32.339844 C 25.741892 32.231435 25.861206 32.11558 25.986328 32.011719 C 26.491955 31.592009 27.007534 31.212734 27.5625 30.898438 A 1 1 0 0 0 28 31 A 1 1 0 0 0 28.953125 30.298828 C 29.568533 30.110407 30.239011 30 31 30 A 1.0001 1.0001 0 0 0 32 29 C 32 29 32.119838 22.951765 34.78125 19.625 A 1.0001 1.0001 0 0 0 35 19 C 35 15.613095 35.579159 12.352806 36.349609 9.7695312 C 36.350419 9.766818 36.350753 9.7644306 36.351562 9.7617188 A 1 1 0 0 0 37 10 A 1 1 0 0 0 38 9 A 1 1 0 0 0 37 8 A 1 1 0 0 0 36.955078 8.0019531 C 37.607982 6.3185033 38.312397 5.1016651 38.707031 4.7070312 A 1.0001 1.0001 0 0 0 37.980469 2.9902344 z M 40 5 A 1 1 0 0 0 39 6 A 1 1 0 0 0 40 7 A 1 1 0 0 0 41 6 A 1 1 0 0 0 40 5 z M 43 8 A 1 1 0 0 0 42 9 A 1 1 0 0 0 43 10 A 1 1 0 0 0 44 9 A 1 1 0 0 0 43 8 z M 40 11 A 1 1 0 0 0 39 12 A 1 1 0 0 0 40 13 A 1 1 0 0 0 41 12 A 1 1 0 0 0 40 11 z M 37 14 A 1 1 0 0 0 36 15 A 1 1 0 0 0 37 16 A 1 1 0 0 0 38 15 A 1 1 0 0 0 37 14 z M 43 14 A 1 1 0 0 0 42 15 A 1 1 0 0 0 43 16 A 1 1 0 0 0 44 15 A 1 1 0 0 0 43 14 z M 40 17 A 1 1 0 0 0 39 18 A 1 1 0 0 0 40 19 A 1 1 0 0 0 41 18 A 1 1 0 0 0 40 17 z M 37 20 A 1 1 0 0 0 36 21 A 1 1 0 0 0 37 22 A 1 1 0 0 0 38 21 A 1 1 0 0 0 37 20 z M 43 20 A 1 1 0 0 0 42 21 A 1 1 0 0 0 43 22 A 1 1 0 0 0 44 21 A 1 1 0 0 0 43 20 z M 34 23 A 1 1 0 0 0 33 24 A 1 1 0 0 0 34 25 A 1 1 0 0 0 35 24 A 1 1 0 0 0 34 23 z M 40 23 A 1 1 0 0 0 39 24 A 1 1 0 0 0 40 25 A 1 1 0 0 0 41 24 A 1 1 0 0 0 40 23 z M 37 26 A 1 1 0 0 0 36 27 A 1 1 0 0 0 37 28 A 1 1 0 0 0 38 27 A 1 1 0 0 0 37 26 z M 34 29 A 1 1 0 0 0 33 30 A 1 1 0 0 0 34 31 A 1 1 0 0 0 35 30 A 1 1 0 0 0 34 29 z M 31 32 A 1 1 0 0 0 30 33 A 1 1 0 0 0 31 34 A 1 1 0 0 0 32 33 A 1 1 0 0 0 31 32 z M 28 35 A 1 1 0 0 0 27 36 A 1 1 0 0 0 28 37 A 1 1 0 0 0 29 36 A 1 1 0 0 0 28 35 z M 13 38 A 1 1 0 0 0 12 39 A 1 1 0 0 0 13 40 A 1 1 0 0 0 14 39 A 1 1 0 0 0 13 38 z M 10 41 A 1 1 0 0 0 9 42 A 1 1 0 0 0 10 43 A 1 1 0 0 0 11 42 A 1 1 0 0 0 10 41 z"/></svg>