<svg fill="#000000" xmlns="http://www.w3.org/2000/svg"  viewBox="0 0 50 50" width="50px" height="50px"><path d="M 15.84375 6 C 15.625 6.039063 15.429688 6.148438 15.28125 6.3125 L 0.28125 22.3125 C -0.0742188 22.6875 -0.0859375 23.265625 0.25 23.65625 L 7.25 31.65625 C 7.429688 31.871094 7.691406 31.996094 7.96875 32.007813 C 8.25 32.019531 8.519531 31.914063 8.71875 31.71875 L 11 29.4375 L 11 44 C 11 44.550781 11.449219 45 12 45 L 38 45 C 38.550781 45 39 44.550781 39 44 L 39 29.4375 L 40.28125 30.71875 C 40.46875 30.914063 40.730469 31.023438 41 31.023438 C 41.269531 31.023438 41.53125 30.914063 41.71875 30.71875 L 49.71875 22.71875 C 49.914063 22.53125 50.023438 22.269531 50.023438 22 C 50.023438 21.730469 49.914063 21.46875 49.71875 21.28125 L 34.71875 6.28125 C 34.414063 5.976563 33.949219 5.902344 33.5625 6.09375 C 33.5625 6.09375 29.523438 8 25 8 C 20.476563 8 16.4375 6.09375 16.4375 6.09375 C 16.253906 6.003906 16.046875 5.96875 15.84375 6 Z M 16.28125 8.15625 C 17.195313 8.5625 20.566406 10 25 10 C 29.433594 10 32.804688 8.5625 33.71875 8.15625 L 47.5625 22 L 41 28.5625 L 38.71875 26.28125 C 38.433594 25.984375 37.992188 25.894531 37.613281 26.054688 C 37.234375 26.210938 36.992188 26.589844 37 27 L 37 43 L 13 43 L 13 27 C 13.007813 26.589844 12.765625 26.210938 12.386719 26.054688 C 12.007813 25.894531 11.566406 25.984375 11.28125 26.28125 L 8.03125 29.53125 L 2.34375 23.03125 Z"/></svg>