<svg fill="#000000" xmlns="http://www.w3.org/2000/svg"  viewBox="0 0 50 50" width="50px" height="50px"><path d="M 25 0 C 20.390625 0 16.1875 1.4375 13.09375 3.8125 C 10 6.1875 8 9.558594 8 13.3125 C 8 16.386719 8.890625 17.9375 9.625 19.34375 C 10.359375 20.75 11 22.082031 11 25.59375 C 11 25.613281 11 25.636719 11 25.65625 C 11 25.667969 11 25.675781 11 25.6875 C 10.996094 25.730469 10.996094 25.769531 11 25.8125 C 11.007813 26.144531 11.042969 26.449219 11.09375 26.75 C 10.316406 26.433594 9.515625 26.121094 8.75 25.84375 C 8.304688 25.683594 8.214844 25.578125 8.125 25.40625 C 8.035156 25.234375 7.96875 24.917969 7.90625 24.46875 C 7.84375 24.019531 7.792969 23.449219 7.46875 22.84375 C 7.144531 22.238281 6.554688 21.652344 5.71875 21.28125 C 5.707031 21.28125 5.699219 21.28125 5.6875 21.28125 C 5.296875 21.109375 4.886719 21.039063 4.5 21.03125 C 4.113281 21.023438 3.75 21.078125 3.40625 21.21875 C 2.722656 21.5 2.207031 22.027344 1.875 22.625 C 1.359375 23.550781 1.34375 24.65625 1.6875 25.71875 C 1.292969 25.976563 0.871094 26.195313 0.59375 26.59375 C 0.15625 27.222656 0 28.003906 0 28.90625 C 0 30.828125 1.390625 32.59375 3.3125 32.59375 C 4.433594 32.59375 5.117188 32.148438 5.34375 32.0625 C 5.457031 32.019531 5.476563 32.011719 5.625 32.03125 C 5.773438 32.050781 6.070313 32.160156 6.5625 32.40625 C 6.582031 32.417969 6.605469 32.429688 6.625 32.4375 L 13.90625 35.40625 C 13.9375 36.152344 13.976563 36.878906 14 37.5 C 13.253906 37.855469 9.019531 39.859375 7.8125 40.375 C 7.792969 40.382813 7.769531 40.394531 7.75 40.40625 C 7.625 40.46875 7.75 40.433594 7.6875 40.40625 C 7.625 40.378906 7.421875 40.242188 7.15625 40 C 6.621094 39.515625 5.65625 38.667969 4.28125 38.8125 C 3.109375 38.941406 2.238281 39.636719 1.875 40.40625 C 1.511719 41.175781 1.527344 41.921875 1.59375 42.4375 C 1.601563 42.46875 1.613281 42.5 1.625 42.53125 C 1.878906 43.617188 2.574219 44.363281 3.25 44.75 C 3.6875 45 4.019531 45.128906 4.375 45.28125 C 4.246094 45.972656 4.1875 46.75 4.40625 47.59375 C 4.5625 48.199219 4.867188 48.820313 5.4375 49.28125 C 6.007813 49.742188 6.789063 50 7.6875 50 C 8.539063 50 9.316406 49.652344 9.8125 49.15625 C 10.308594 48.660156 10.558594 48.097656 10.75 47.5625 C 10.941406 47.027344 11.066406 46.511719 11.1875 46.15625 C 11.277344 45.890625 11.394531 45.75 11.40625 45.71875 C 12.660156 44.894531 16.675781 42.894531 17.15625 42.65625 C 17.421875 42.855469 17.675781 43.046875 17.96875 43.25 C 19.976563 44.628906 22.503906 46 25 46 C 27.496094 46 30.023438 44.613281 32.03125 43.21875 C 32.304688 43.027344 32.53125 42.84375 32.78125 42.65625 C 33.023438 42.777344 33.835938 43.171875 35.03125 43.78125 C 36.382813 44.46875 37.933594 45.316406 38.5 45.71875 C 38.511719 45.75 38.628906 45.890625 38.71875 46.15625 C 38.839844 46.511719 38.964844 47.027344 39.15625 47.5625 C 39.347656 48.097656 39.597656 48.660156 40.09375 49.15625 C 40.589844 49.652344 41.335938 50 42.1875 50 C 43.105469 50 43.917969 49.746094 44.5 49.28125 C 45.082031 48.816406 45.378906 48.175781 45.53125 47.5625 C 45.738281 46.71875 45.664063 45.960938 45.53125 45.28125 C 45.914063 45.125 46.277344 45.003906 46.71875 44.75 C 47.390625 44.367188 48.039063 43.585938 48.25 42.53125 L 48.28125 42.53125 C 48.285156 42.511719 48.277344 42.488281 48.28125 42.46875 C 48.421875 41.859375 48.40625 41.128906 48.03125 40.375 C 47.644531 39.601563 46.792969 38.941406 45.625 38.8125 C 44.277344 38.664063 43.320313 39.519531 42.78125 40 C 42.511719 40.238281 42.292969 40.371094 42.21875 40.40625 C 42.144531 40.441406 42.277344 40.464844 42.15625 40.40625 C 42.144531 40.40625 42.136719 40.40625 42.125 40.40625 C 40.890625 39.835938 36.097656 37.484375 36 37.4375 C 36.015625 36.785156 36.035156 36.011719 36.0625 35.21875 L 43.34375 32.4375 C 43.375 32.429688 43.40625 32.417969 43.4375 32.40625 C 43.929688 32.160156 44.226563 32.050781 44.375 32.03125 C 44.523438 32.011719 44.542969 32.019531 44.65625 32.0625 C 44.882813 32.148438 45.566406 32.59375 46.6875 32.59375 C 48.609375 32.59375 50 30.828125 50 28.90625 C 50 28.046875 49.832031 27.269531 49.40625 26.65625 C 49.128906 26.261719 48.703125 26.027344 48.3125 25.75 C 48.667969 24.679688 48.644531 23.558594 48.125 22.625 C 47.792969 22.027344 47.277344 21.5 46.59375 21.21875 C 45.910156 20.9375 45.09375 20.941406 44.3125 21.28125 C 44.300781 21.28125 44.292969 21.28125 44.28125 21.28125 C 43.445313 21.652344 42.855469 22.238281 42.53125 22.84375 C 42.207031 23.449219 42.15625 24.019531 42.09375 24.46875 C 42.03125 24.917969 41.964844 25.234375 41.875 25.40625 C 41.785156 25.578125 41.695313 25.683594 41.25 25.84375 C 41.238281 25.855469 41.230469 25.863281 41.21875 25.875 C 40.136719 26.324219 39.828125 26.46875 38.875 26.875 C 38.929688 26.582031 38.953125 26.292969 38.96875 25.96875 C 38.980469 25.949219 38.992188 25.925781 39 25.90625 C 39 25.886719 39 25.863281 39 25.84375 C 39.003906 25.792969 39.003906 25.738281 39 25.6875 C 39 25.675781 39 25.667969 39 25.65625 C 39 25.632813 39 25.617188 39 25.59375 C 39 22.132813 39.640625 20.847656 40.375 19.4375 C 41.109375 18.027344 42 16.433594 42 13.3125 C 42 9.558594 40 6.1875 36.90625 3.8125 C 33.8125 1.4375 29.609375 0 25 0 Z M 25 2 C 29.191406 2 32.980469 3.332031 35.6875 5.40625 C 38.394531 7.480469 40 10.265625 40 13.3125 C 40 16.09375 39.390625 17.035156 38.625 18.5 C 38.214844 19.28125 37.785156 20.195313 37.46875 21.4375 C 37.195313 20.757813 37 19.894531 37 18.40625 C 37 15.628906 37.96875 12.28125 37.96875 12.28125 C 38.082031 11.9375 37.996094 11.558594 37.75 11.292969 C 37.503906 11.027344 37.132813 10.914063 36.78125 11 C 36.417969 11.082031 36.128906 11.359375 36.03125 11.71875 C 36.03125 11.71875 35 15.183594 35 18.40625 C 35 20.851563 35.589844 22.273438 36.125 23.25 C 36.644531 24.195313 36.980469 24.570313 37 25.59375 C 37 25.628906 37 25.652344 37 25.6875 C 37 25.71875 37 25.75 37 25.78125 C 36.96875 26.96875 36.65625 27.519531 36.25 27.875 C 36.148438 27.964844 36.035156 28.054688 35.90625 28.125 C 35.871094 28.144531 35.820313 28.136719 35.78125 28.15625 C 35.75 28.164063 35.71875 28.175781 35.6875 28.1875 C 35.675781 28.1875 35.667969 28.1875 35.65625 28.1875 C 35.523438 28.214844 35.394531 28.265625 35.28125 28.34375 C 35.261719 28.351563 35.238281 28.363281 35.21875 28.375 C 34.941406 28.464844 34.648438 28.554688 34.3125 28.625 C 33.480469 28.796875 32.515625 28.914063 31.625 29.375 C 30.734375 29.835938 30 30.859375 30 32.1875 C 30 32.246094 29.703125 32.816406 28.78125 33.28125 C 27.859375 33.746094 26.5 34.09375 25 34.09375 C 23.5 34.09375 22.140625 33.746094 21.21875 33.28125 C 20.296875 32.816406 20 32.246094 20 32.1875 C 20 30.878906 19.261719 29.859375 18.375 29.40625 C 17.488281 28.953125 16.550781 28.867188 15.71875 28.6875 C 15.390625 28.617188 15.09375 28.535156 14.8125 28.4375 C 14.808594 28.4375 14.816406 28.40625 14.8125 28.40625 C 14.722656 28.3125 14.617188 28.238281 14.5 28.1875 C 14.5 28.1875 13.964844 27.96875 13.75 27.875 C 13.335938 27.507813 13.027344 26.960938 13 25.75 C 13 25.730469 13 25.707031 13 25.6875 C 13 25.652344 13 25.628906 13 25.59375 C 13.019531 24.570313 13.355469 24.195313 13.875 23.25 C 14.410156 22.273438 15 20.851563 15 18.40625 C 15 15.183594 13.96875 11.71875 13.96875 11.71875 C 13.832031 11.199219 13.304688 10.882813 12.78125 11 C 12.503906 11.058594 12.265625 11.230469 12.121094 11.472656 C 11.980469 11.71875 11.945313 12.011719 12.03125 12.28125 C 12.03125 12.28125 13 15.628906 13 18.40625 C 13 19.894531 12.804688 20.757813 12.53125 21.4375 C 12.214844 20.167969 11.789063 19.230469 11.375 18.4375 C 10.609375 16.96875 10 16.039063 10 13.3125 C 10 10.265625 11.605469 7.480469 14.3125 5.40625 C 17.019531 3.332031 20.808594 2 25 2 Z M 19.8125 17 C 17.128906 17 15 19.078125 15 21.6875 C 15 23.488281 15.40625 24.796875 16.09375 25.6875 C 16.78125 26.578125 17.742188 27 18.59375 27 C 20.152344 27 21.53125 26.484375 22.5 25.53125 C 23.46875 24.578125 24 23.207031 24 21.6875 C 24 20.582031 23.613281 19.488281 22.90625 18.59375 C 22.199219 17.699219 21.113281 17 19.8125 17 Z M 30.1875 17 C 28.886719 17 27.800781 17.699219 27.09375 18.59375 C 26.386719 19.488281 26 20.582031 26 21.6875 C 26 23.207031 26.53125 24.578125 27.5 25.53125 C 28.46875 26.484375 29.847656 27 31.40625 27 C 32.257813 27 33.21875 26.578125 33.90625 25.6875 C 34.59375 24.796875 35 23.488281 35 21.6875 C 35 19.078125 32.871094 17 30.1875 17 Z M 19.8125 19 C 20.410156 19 20.894531 19.316406 21.3125 19.84375 C 21.730469 20.371094 22 21.09375 22 21.6875 C 22 22.769531 21.679688 23.578125 21.125 24.125 C 20.570313 24.671875 19.734375 25 18.59375 25 C 18.347656 25 18.023438 24.902344 17.6875 24.46875 C 17.351563 24.035156 17 23.1875 17 21.6875 C 17 20.09375 18.097656 19 19.8125 19 Z M 30.1875 19 C 31.902344 19 33 20.09375 33 21.6875 C 33 23.1875 32.648438 24.035156 32.3125 24.46875 C 31.976563 24.902344 31.652344 25 31.40625 25 C 30.265625 25 29.429688 24.671875 28.875 24.125 C 28.320313 23.578125 28 22.769531 28 21.6875 C 28 21.09375 28.269531 20.371094 28.6875 19.84375 C 29.105469 19.316406 29.589844 19 30.1875 19 Z M 4.46875 23 C 4.585938 23.003906 4.722656 23.046875 4.90625 23.125 C 5.417969 23.351563 5.566406 23.554688 5.6875 23.78125 C 5.808594 24.007813 5.875 24.3125 5.9375 24.75 C 6 25.1875 6.039063 25.757813 6.34375 26.34375 C 6.648438 26.929688 7.257813 27.460938 8.0625 27.75 C 10.003906 28.449219 11.984375 29.285156 12.84375 29.65625 C 12.96875 29.742188 13.089844 29.835938 13.21875 29.90625 C 13.230469 29.914063 13.238281 29.929688 13.25 29.9375 C 13.238281 29.921875 13.511719 30.691406 13.625 31.59375 C 13.6875 32.070313 13.738281 32.625 13.78125 33.1875 L 7.4375 30.59375 C 7.410156 30.582031 7.398438 30.574219 7.375 30.5625 C 6.804688 30.28125 6.328125 30.125 5.875 30.0625 C 5.402344 30 4.96875 30.097656 4.65625 30.21875 C 4.03125 30.457031 3.992188 30.59375 3.3125 30.59375 C 2.835938 30.59375 2 29.78125 2 28.90625 C 2 28.210938 2.082031 27.917969 2.21875 27.71875 C 2.355469 27.519531 2.671875 27.296875 3.28125 26.96875 C 3.527344 26.832031 3.703125 26.597656 3.769531 26.324219 C 3.835938 26.050781 3.78125 25.765625 3.625 25.53125 C 3.273438 25 3.316406 24.148438 3.625 23.59375 C 3.777344 23.316406 3.96875 23.136719 4.15625 23.0625 C 4.25 23.023438 4.351563 22.996094 4.46875 23 Z M 45.53125 23 C 45.648438 22.996094 45.75 23.023438 45.84375 23.0625 C 46.03125 23.136719 46.222656 23.316406 46.375 23.59375 C 46.683594 24.148438 46.726563 25 46.375 25.53125 C 46.226563 25.757813 46.171875 26.035156 46.230469 26.300781 C 46.292969 26.566406 46.457031 26.796875 46.6875 26.9375 C 47.308594 27.320313 47.632813 27.597656 47.78125 27.8125 C 47.929688 28.027344 48 28.265625 48 28.90625 C 48 29.78125 47.164063 30.59375 46.6875 30.59375 C 46.007813 30.59375 45.96875 30.457031 45.34375 30.21875 C 45.03125 30.097656 44.597656 30 44.125 30.0625 C 43.679688 30.121094 43.214844 30.292969 42.65625 30.5625 C 42.621094 30.578125 42.597656 30.574219 42.5625 30.59375 L 36.1875 33.03125 C 36.226563 32.457031 36.257813 31.890625 36.3125 31.40625 C 36.390625 30.730469 36.523438 30.253906 36.59375 30 C 36.621094 29.984375 36.660156 29.984375 36.6875 29.96875 C 36.71875 29.949219 36.75 29.929688 36.78125 29.90625 C 36.78125 29.90625 36.875 29.875 36.875 29.875 C 36.886719 29.867188 36.894531 29.851563 36.90625 29.84375 C 37.039063 29.789063 39.625 28.714844 41.9375 27.75 C 41.960938 27.742188 41.976563 27.726563 42 27.71875 C 42.769531 27.421875 43.359375 26.914063 43.65625 26.34375 C 43.960938 25.757813 44 25.1875 44.0625 24.75 C 44.125 24.3125 44.191406 24.007813 44.3125 23.78125 C 44.433594 23.554688 44.582031 23.351563 45.09375 23.125 C 45.277344 23.046875 45.414063 23.003906 45.53125 23 Z M 24.90625 26 C 23.707031 26 22 28.992188 22 30.59375 C 22 31.492188 22.292969 32 23.09375 32 C 23.492188 32 24.113281 31 24.8125 29 L 24.90625 29 C 25.105469 29.699219 26.011719 31.90625 26.8125 31.90625 C 27.511719 31.90625 28 31.511719 28 30.8125 C 28 30.210938 26.105469 26 24.90625 26 Z M 15.5 30.65625 C 16.089844 30.78125 16.632813 30.90625 17.03125 31.03125 C 17.488281 33.960938 17.46875 36.03125 18.4375 37.6875 C 18.933594 38.535156 19.738281 39.179688 20.8125 39.53125 C 21.886719 39.882813 23.222656 40 25 40 C 26.777344 40 28.113281 39.867188 29.1875 39.5 C 30.261719 39.132813 31.078125 38.457031 31.5625 37.59375 C 32.492188 35.933594 32.492188 33.898438 32.96875 31 C 33.335938 30.882813 33.835938 30.769531 34.375 30.65625 C 34.355469 30.828125 34.335938 30.96875 34.3125 31.15625 C 34.195313 32.167969 34.136719 33.351563 34.09375 34.5 C 34.050781 35.648438 34.023438 36.765625 34 37.625 C 33.988281 38.054688 33.984375 38.425781 33.96875 38.6875 C 33.960938 38.796875 33.921875 38.894531 33.90625 38.96875 C 33.882813 39.011719 33.882813 39.046875 33.84375 39.09375 C 33.699219 39.257813 33.472656 39.484375 33.1875 39.75 C 32.617188 40.28125 31.796875 40.953125 30.875 41.59375 C 29.035156 42.875 26.703125 44 25 44 C 23.296875 44 20.96875 42.863281 19.125 41.59375 C 18.203125 40.960938 17.386719 40.300781 16.8125 39.78125 C 16.523438 39.519531 16.304688 39.285156 16.15625 39.125 C 16.113281 39.078125 16.089844 39.0625 16.0625 39.03125 C 16.066406 39.015625 16.042969 38.953125 16.03125 38.75 C 16.015625 38.480469 16.015625 38.113281 16 37.6875 C 15.96875 36.832031 15.933594 35.757813 15.875 34.625 C 15.816406 33.492188 15.71875 32.335938 15.59375 31.34375 C 15.5625 31.09375 15.535156 30.878906 15.5 30.65625 Z M 19.59375 34.625 C 19.828125 34.777344 20.054688 34.933594 20.3125 35.0625 C 20.816406 35.316406 21.386719 35.519531 22 35.6875 L 22 37.75 C 21.792969 37.707031 21.601563 37.679688 21.4375 37.625 C 20.707031 37.386719 20.421875 37.109375 20.15625 36.65625 C 19.910156 36.234375 19.742188 35.539063 19.59375 34.625 Z M 30.34375 34.65625 C 30.203125 35.519531 30.046875 36.207031 29.8125 36.625 C 29.546875 37.101563 29.246094 37.382813 28.53125 37.625 C 28.378906 37.675781 28.191406 37.707031 28 37.75 L 28 35.6875 C 28.613281 35.519531 29.183594 35.316406 29.6875 35.0625 C 29.925781 34.941406 30.128906 34.796875 30.34375 34.65625 Z M 24 36.03125 C 24.328125 36.058594 24.65625 36.09375 25 36.09375 C 25.34375 36.09375 25.671875 36.058594 26 36.03125 L 26 37.96875 C 25.6875 37.980469 25.363281 38 25 38 C 24.636719 38 24.316406 37.980469 24 37.96875 Z M 35.84375 39.5625 C 36.789063 40.027344 40.039063 41.625 41.25 42.1875 C 41.253906 42.1875 41.277344 42.179688 41.28125 42.1875 C 41.855469 42.460938 42.554688 42.460938 43.03125 42.25 C 43.519531 42.035156 43.84375 41.746094 44.125 41.5 C 44.683594 41.003906 44.921875 40.730469 45.375 40.78125 C 46.007813 40.851563 46.136719 41.054688 46.25 41.28125 C 46.363281 41.507813 46.390625 41.882813 46.34375 42.0625 C 46.332031 42.082031 46.320313 42.105469 46.3125 42.125 C 46.207031 42.730469 46.082031 42.792969 45.71875 43 C 45.355469 43.207031 44.710938 43.398438 43.9375 43.8125 C 43.503906 44.035156 43.292969 44.535156 43.4375 45 C 43.601563 45.53125 43.742188 46.492188 43.59375 47.09375 C 43.519531 47.394531 43.425781 47.578125 43.25 47.71875 C 43.074219 47.859375 42.769531 48 42.1875 48 C 41.789063 48 41.664063 47.914063 41.5 47.75 C 41.335938 47.585938 41.175781 47.277344 41.03125 46.875 C 40.886719 46.472656 40.757813 45.980469 40.59375 45.5 C 40.429688 45.019531 40.273438 44.503906 39.6875 44.09375 C 38.84375 43.492188 37.324219 42.675781 35.9375 41.96875 C 35.167969 41.578125 34.984375 41.484375 34.5 41.25 C 34.507813 41.242188 34.523438 41.226563 34.53125 41.21875 C 34.855469 40.917969 35.132813 40.648438 35.34375 40.40625 C 35.539063 40.179688 35.703125 40.050781 35.84375 39.625 C 35.847656 39.613281 35.839844 39.605469 35.84375 39.59375 C 35.847656 39.582031 35.835938 39.566406 35.84375 39.5625 Z M 14.125 39.65625 C 14.128906 39.667969 14.121094 39.675781 14.125 39.6875 C 14.136719 39.699219 14.144531 39.707031 14.15625 39.71875 C 14.246094 39.984375 14.324219 40.046875 14.40625 40.15625 C 14.488281 40.265625 14.582031 40.386719 14.6875 40.5 C 14.886719 40.71875 15.132813 40.972656 15.4375 41.25 C 14.128906 41.898438 11.578125 43.175781 10.25 44.0625 C 10.238281 44.074219 10.230469 44.082031 10.21875 44.09375 C 9.632813 44.503906 9.476563 45.019531 9.3125 45.5 C 9.148438 45.980469 9.019531 46.472656 8.875 46.875 C 8.730469 47.277344 8.570313 47.585938 8.40625 47.75 C 8.242188 47.914063 8.085938 48 7.6875 48 C 7.136719 48 6.894531 47.859375 6.71875 47.71875 C 6.542969 47.578125 6.421875 47.398438 6.34375 47.09375 C 6.183594 46.480469 6.3125 45.511719 6.46875 45 C 6.601563 44.550781 6.40625 44.074219 6 43.84375 C 5.265625 43.414063 4.625 43.214844 4.25 43 C 3.898438 42.800781 3.730469 42.648438 3.59375 42.125 C 3.566406 41.847656 3.585938 41.464844 3.6875 41.25 C 3.796875 41.019531 3.871094 40.851563 4.5 40.78125 C 5.027344 40.726563 5.273438 40.980469 5.8125 41.46875 C 6.082031 41.714844 6.390625 42.03125 6.875 42.25 C 7.339844 42.460938 8.027344 42.445313 8.59375 42.1875 L 8.59375 42.21875 C 8.609375 42.210938 8.640625 42.195313 8.65625 42.1875 C 9.863281 41.667969 12.710938 40.324219 14.125 39.65625 Z"/></svg>