<svg fill="#000000" xmlns="http://www.w3.org/2000/svg"  viewBox="0 0 50 50" width="50px" height="50px"><path d="M 17.71875 8 C 17.167969 8.078125 16.78125 8.589844 16.859375 9.140625 C 16.9375 9.691406 17.449219 10.078125 18 10 L 32 10 C 32.359375 10.003906 32.695313 9.816406 32.878906 9.503906 C 33.058594 9.191406 33.058594 8.808594 32.878906 8.496094 C 32.695313 8.183594 32.359375 7.996094 32 8 L 18 8 C 17.96875 8 17.9375 8 17.90625 8 C 17.875 8 17.84375 8 17.8125 8 C 17.78125 8 17.75 8 17.71875 8 Z M 24.90625 10.96875 C 24.863281 10.976563 24.820313 10.988281 24.78125 11 C 24.589844 11.042969 24.417969 11.140625 24.28125 11.28125 L 21.4375 13.15625 C 20.972656 13.46875 20.84375 14.097656 21.15625 14.5625 C 21.46875 15.027344 22.097656 15.15625 22.5625 14.84375 L 24 13.875 L 24 35.96875 L 19.125 32.21875 C 18.90625 32.039063 18.625 31.960938 18.34375 32 C 17.945313 32.058594 17.621094 32.347656 17.519531 32.734375 C 17.417969 33.125 17.558594 33.535156 17.875 33.78125 L 24.25 38.6875 C 24.304688 38.746094 24.367188 38.800781 24.4375 38.84375 C 24.449219 38.84375 24.457031 38.84375 24.46875 38.84375 C 24.601563 38.929688 24.75 38.984375 24.90625 39 C 24.917969 39 24.925781 39 24.9375 39 C 24.957031 39 24.980469 39 25 39 C 25.011719 39 25.019531 39 25.03125 39 C 25.195313 38.996094 25.355469 38.953125 25.5 38.875 C 25.542969 38.847656 25.585938 38.816406 25.625 38.78125 L 32.125 33.78125 C 32.558594 33.4375 32.625 32.804688 32.28125 32.375 C 31.9375 31.941406 31.304688 31.875 30.875 32.21875 L 26 35.96875 L 26 13.875 L 27.4375 14.84375 C 27.902344 15.15625 28.53125 15.027344 28.84375 14.5625 C 29.15625 14.097656 29.027344 13.46875 28.5625 13.15625 L 25.71875 11.28125 C 25.699219 11.257813 25.679688 11.238281 25.65625 11.21875 L 25.5625 11.15625 C 25.542969 11.132813 25.523438 11.113281 25.5 11.09375 C 25.320313 10.992188 25.113281 10.949219 24.90625 10.96875 Z M 17 12 C 16.449219 12 16 12.449219 16 13 C 16 13.550781 16.449219 14 17 14 C 17.550781 14 18 13.550781 18 13 C 18 12.449219 17.550781 12 17 12 Z M 33 12 C 32.449219 12 32 12.449219 32 13 C 32 13.550781 32.449219 14 33 14 C 33.550781 14 34 13.550781 34 13 C 34 12.449219 33.550781 12 33 12 Z M 15 16 C 14.449219 16 14 16.449219 14 17 C 14 17.550781 14.449219 18 15 18 C 15.550781 18 16 17.550781 16 17 C 16 16.449219 15.550781 16 15 16 Z M 35 16 C 34.449219 16 34 16.449219 34 17 C 34 17.550781 34.449219 18 35 18 C 35.550781 18 36 17.550781 36 17 C 36 16.449219 35.550781 16 35 16 Z M 13 20 C 12.449219 20 12 20.449219 12 21 C 12 21.550781 12.449219 22 13 22 C 13.550781 22 14 21.550781 14 21 C 14 20.449219 13.550781 20 13 20 Z M 37 20 C 36.449219 20 36 20.449219 36 21 C 36 21.550781 36.449219 22 37 22 C 37.550781 22 38 21.550781 38 21 C 38 20.449219 37.550781 20 37 20 Z M 11 24 C 10.449219 24 10 24.449219 10 25 C 10 25.550781 10.449219 26 11 26 C 11.550781 26 12 25.550781 12 25 C 12 24.449219 11.550781 24 11 24 Z M 39 24 C 38.449219 24 38 24.449219 38 25 C 38 25.550781 38.449219 26 39 26 C 39.550781 26 40 25.550781 40 25 C 40 24.449219 39.550781 24 39 24 Z M 9 28 C 8.449219 28 8 28.449219 8 29 C 8 29.550781 8.449219 30 9 30 C 9.550781 30 10 29.550781 10 29 C 10 28.449219 9.550781 28 9 28 Z M 41 28 C 40.449219 28 40 28.449219 40 29 C 40 29.550781 40.449219 30 41 30 C 41.550781 30 42 29.550781 42 29 C 42 28.449219 41.550781 28 41 28 Z M 7 32 C 6.449219 32 6 32.449219 6 33 C 6 33.550781 6.449219 34 7 34 C 7.550781 34 8 33.550781 8 33 C 8 32.449219 7.550781 32 7 32 Z M 43 32 C 42.449219 32 42 32.449219 42 33 C 42 33.550781 42.449219 34 43 34 C 43.550781 34 44 33.550781 44 33 C 44 32.449219 43.550781 32 43 32 Z M 5 36 C 4.449219 36 4 36.449219 4 37 C 4 37.550781 4.449219 38 5 38 C 5.550781 38 6 37.550781 6 37 C 6 36.449219 5.550781 36 5 36 Z M 45 36 C 44.449219 36 44 36.449219 44 37 C 44 37.550781 44.449219 38 45 38 C 45.550781 38 46 37.550781 46 37 C 46 36.449219 45.550781 36 45 36 Z M 2.71875 40 C 2.167969 40.078125 1.78125 40.589844 1.859375 41.140625 C 1.9375 41.691406 2.449219 42.078125 3 42 L 47 42 C 47.359375 42.003906 47.695313 41.816406 47.878906 41.503906 C 48.058594 41.191406 48.058594 40.808594 47.878906 40.496094 C 47.695313 40.183594 47.359375 39.996094 47 40 L 3 40 C 2.96875 40 2.9375 40 2.90625 40 C 2.875 40 2.84375 40 2.8125 40 C 2.78125 40 2.75 40 2.71875 40 Z"/></svg>