<svg fill="#000000" xmlns="http://www.w3.org/2000/svg"  viewBox="0 0 50 50" width="50px" height="50px"><path d="M 24.4375 0 C 24.078125 0.0585938 23.777344 0.3125 23.65625 0.65625 L 19.96875 11.0625 L 9 4.9375 C 8.628906 4.734375 8.171875 4.789063 7.859375 5.070313 C 7.542969 5.347656 7.4375 5.796875 7.59375 6.1875 L 13.15625 19.40625 L 1.75 22.15625 C 1.351563 22.253906 1.054688 22.585938 0.996094 22.992188 C 0.941406 23.398438 1.140625 23.800781 1.5 24 L 10.625 29.125 L 5.75 37.1875 C 5.558594 37.511719 5.566406 37.917969 5.773438 38.234375 C 5.976563 38.550781 6.34375 38.726563 6.71875 38.6875 L 18.59375 37.46875 L 22.0625 49.28125 C 22.179688 49.644531 22.496094 49.910156 22.875 49.964844 C 23.253906 50.015625 23.628906 49.847656 23.84375 49.53125 L 30.53125 39 L 42.8125 42.375 C 43.191406 42.476563 43.59375 42.347656 43.84375 42.042969 C 44.09375 41.742188 44.140625 41.320313 43.96875 40.96875 L 38.0625 29.59375 L 48.4375 24.65625 C 48.796875 24.472656 49.011719 24.085938 48.976563 23.683594 C 48.941406 23.277344 48.667969 22.933594 48.28125 22.8125 L 37.78125 19.6875 L 44.71875 8.5 C 44.945313 8.128906 44.902344 7.652344 44.617188 7.324219 C 44.332031 6.996094 43.867188 6.890625 43.46875 7.0625 L 30 12.84375 L 25.53125 0.65625 C 25.378906 0.242188 24.972656 -0.0273438 24.53125 0 C 24.5 0 24.46875 0 24.4375 0 Z M 24.625 3.9375 L 28.5 14.53125 C 28.589844 14.789063 28.78125 14.996094 29.03125 15.105469 C 29.277344 15.21875 29.558594 15.226563 29.8125 15.125 L 41.3125 10.15625 L 35.375 19.75 C 35.21875 20.019531 35.195313 20.34375 35.3125 20.628906 C 35.425781 20.917969 35.671875 21.136719 35.96875 21.21875 L 45.1875 23.96875 L 36.28125 28.21875 C 36.039063 28.332031 35.855469 28.539063 35.765625 28.792969 C 35.679688 29.046875 35.695313 29.324219 35.8125 29.5625 L 41.125 39.84375 L 30.34375 36.90625 C 29.921875 36.777344 29.460938 36.941406 29.21875 37.3125 L 23.34375 46.59375 L 20.25 36.09375 C 20.105469 35.640625 19.660156 35.355469 19.1875 35.40625 L 8.5 36.46875 L 12.875 29.25 C 13.007813 29.019531 13.046875 28.742188 12.976563 28.484375 C 12.90625 28.226563 12.734375 28.007813 12.5 27.875 L 4.71875 23.53125 L 14.75 21.0625 C 15.03125 20.992188 15.269531 20.804688 15.398438 20.546875 C 15.53125 20.289063 15.546875 19.988281 15.4375 19.71875 L 10.5625 8.09375 L 20 13.40625 C 20.257813 13.554688 20.566406 13.578125 20.84375 13.476563 C 21.121094 13.375 21.335938 13.152344 21.4375 12.875 Z M 24.65625 14.4375 C 24.21875 14.5 23.875 14.84375 23.8125 15.28125 L 23.0625 19.75 L 20.15625 17.6875 C 19.789063 17.421875 19.289063 17.433594 18.9375 17.71875 C 18.585938 18.007813 18.472656 18.492188 18.65625 18.90625 L 20.5 23.1875 L 16.46875 24.1875 C 16.046875 24.304688 15.753906 24.683594 15.738281 25.117188 C 15.726563 25.554688 15.996094 25.949219 16.40625 26.09375 L 20.03125 27.3125 L 17.65625 29.8125 C 17.351563 30.136719 17.296875 30.621094 17.519531 31.003906 C 17.746094 31.386719 18.195313 31.574219 18.625 31.46875 L 23.0625 30.34375 L 23.5625 36 C 23.59375 36.472656 23.949219 36.859375 24.417969 36.925781 C 24.886719 36.996094 25.335938 36.726563 25.5 36.28125 L 27.125 31.78125 L 32.6875 34.4375 C 33.09375 34.628906 33.582031 34.523438 33.871094 34.179688 C 34.164063 33.835938 34.191406 33.339844 33.9375 32.96875 L 30.375 27.90625 L 34.96875 26 C 35.378906 25.832031 35.625 25.417969 35.582031 24.976563 C 35.539063 24.539063 35.214844 24.179688 34.78125 24.09375 L 30.3125 23.21875 L 33.65625 18.4375 C 33.917969 18.054688 33.882813 17.542969 33.570313 17.199219 C 33.257813 16.855469 32.75 16.773438 32.34375 17 L 26.84375 20.15625 L 25.78125 15.21875 C 25.675781 14.742188 25.238281 14.410156 24.75 14.4375 C 24.71875 14.4375 24.6875 14.4375 24.65625 14.4375 Z M 24.90625 20.8125 L 25.15625 21.90625 C 25.222656 22.214844 25.433594 22.476563 25.726563 22.605469 C 26.015625 22.734375 26.347656 22.71875 26.625 22.5625 L 29.46875 20.9375 L 27.8125 23.34375 C 27.613281 23.621094 27.570313 23.980469 27.699219 24.296875 C 27.824219 24.613281 28.101563 24.839844 28.4375 24.90625 L 31.125 25.40625 L 28.46875 26.53125 C 28.1875 26.648438 27.972656 26.882813 27.890625 27.175781 C 27.804688 27.46875 27.855469 27.78125 28.03125 28.03125 L 30.09375 30.96875 L 27 29.5 C 26.746094 29.378906 26.449219 29.367188 26.1875 29.476563 C 25.925781 29.582031 25.722656 29.796875 25.625 30.0625 L 25.15625 31.34375 L 24.96875 29 C 24.941406 28.707031 24.789063 28.441406 24.546875 28.273438 C 24.304688 28.105469 24.003906 28.050781 23.71875 28.125 L 21.5 28.6875 L 22.5625 27.5625 C 22.808594 27.316406 22.90625 26.957031 22.824219 26.621094 C 22.738281 26.28125 22.488281 26.011719 22.15625 25.90625 L 20.3125 25.28125 L 22.125 24.84375 C 22.410156 24.769531 22.644531 24.574219 22.769531 24.308594 C 22.898438 24.042969 22.902344 23.738281 22.78125 23.46875 L 21.875 21.3125 L 23.25 22.28125 C 23.53125 22.464844 23.882813 22.496094 24.191406 22.363281 C 24.5 22.230469 24.722656 21.953125 24.78125 21.625 Z"/></svg>