<svg fill="#000000" xmlns="http://www.w3.org/2000/svg"  viewBox="0 0 50 50" width="50px" height="50px"><path d="M 30.25 0 C 27.585938 0.0078125 24.71875 0.292969 21.78125 0.90625 C 15.90625 2.132813 11.03125 4.304688 7.5625 7 C 4.402344 9.457031 2.394531 12.410156 2.0625 15.5 C 2.015625 15.628906 1.992188 15.769531 2 15.90625 C 2 16.007813 1.996094 16.117188 2 16.21875 C 2 16.28125 2 16.34375 2 16.40625 C 2 16.90625 2.078125 17.382813 2.21875 17.84375 C 2.925781 21.097656 5.367188 23.789063 8.71875 25.6875 C 9.894531 26.351563 11.207031 26.921875 12.59375 27.40625 C 12.542969 27.695313 12.625 27.992188 12.8125 28.21875 C 12.8125 28.21875 14.5 30.273438 17.59375 32.1875 C 17.574219 32.1875 17.550781 32.1875 17.53125 32.1875 C 17.25 32.238281 17 32.40625 16.851563 32.652344 C 16.703125 32.898438 16.664063 33.195313 16.75 33.46875 C 16.75 33.46875 17.332031 35.621094 19.15625 37.71875 C 20.980469 39.816406 24.121094 41.90625 29 41.90625 C 33.5 41.90625 36.5625 39.8125 36.5625 39.8125 C 36.917969 39.640625 37.136719 39.277344 37.125 38.882813 C 37.113281 38.488281 36.871094 38.136719 36.507813 37.988281 C 36.140625 37.835938 35.722656 37.914063 35.4375 38.1875 C 35.4375 38.1875 32.898438 39.90625 29 39.90625 C 24.679688 39.90625 22.183594 38.160156 20.65625 36.40625 C 19.128906 34.652344 18.65625 32.9375 18.65625 32.9375 C 18.640625 32.875 18.621094 32.808594 18.59375 32.75 C 21.183594 34.175781 24.558594 35.40625 28.6875 35.40625 C 33.339844 35.40625 36.433594 34.339844 38.34375 33.21875 C 40.253906 32.097656 41.0625 30.8125 41.0625 30.8125 C 41.347656 30.335938 41.195313 29.722656 40.71875 29.4375 C 40.246094 29.152344 39.628906 29.304688 39.34375 29.78125 C 39.34375 29.78125 38.902344 30.570313 37.3125 31.5 C 35.722656 32.429688 33.035156 33.40625 28.6875 33.40625 C 22.195313 33.40625 17.742188 30.160156 15.6875 28.28125 C 18.226563 28.863281 20.960938 29.1875 23.8125 29.1875 C 31.308594 29.1875 36.539063 27.566406 39.9375 25.53125 C 41.636719 24.511719 42.851563 23.394531 43.6875 22.3125 C 44.523438 21.230469 45 20.191406 45 19.1875 C 45.003906 18.828125 44.816406 18.492188 44.503906 18.308594 C 44.191406 18.128906 43.808594 18.128906 43.496094 18.308594 C 43.183594 18.492188 42.996094 18.828125 43 19.1875 C 43 19.484375 42.78125 20.246094 42.125 21.09375 C 41.46875 21.941406 40.417969 22.90625 38.90625 23.8125 C 35.878906 25.625 31.015625 27.1875 23.8125 27.1875 C 18.359375 27.1875 13.289063 26.007813 9.6875 23.96875 C 8.953125 23.550781 8.292969 23.101563 7.6875 22.625 C 8.414063 22.898438 9.175781 23.144531 10 23.34375 C 14.53125 24.441406 20.425781 24.46875 26.3125 23.1875 C 32.242188 21.960938 37.347656 19.683594 40.90625 16.9375 C 44.464844 14.191406 46.589844 10.84375 45.875 7.5 C 45.160156 4.164063 41.894531 1.941406 37.5625 0.84375 C 35.394531 0.292969 32.914063 -0.0078125 30.25 0 Z M 30.25 2 C 32.769531 1.996094 35.089844 2.28125 37.0625 2.78125 C 41.003906 3.78125 43.453125 5.644531 43.9375 7.90625 C 44.421875 10.160156 42.929688 12.839844 39.6875 15.34375 C 36.445313 17.847656 31.578125 20.046875 25.90625 21.21875 C 25.894531 21.21875 25.886719 21.21875 25.875 21.21875 C 20.261719 22.4375 14.613281 22.410156 10.46875 21.40625 C 8.398438 20.90625 6.726563 20.15625 5.625 19.28125 C 4.890625 18.699219 4.425781 18.09375 4.1875 17.4375 C 4.09375 17.007813 4.042969 16.578125 4.03125 16.125 C 4.148438 13.621094 5.769531 10.957031 8.8125 8.59375 C 11.96875 6.140625 16.59375 4.050781 22.21875 2.875 C 25.03125 2.289063 27.730469 2.003906 30.25 2 Z M 29.59375 5.9375 C 27.671875 5.984375 25.617188 6.203125 23.5 6.625 C 16.507813 8.066406 10.882813 11.253906 8.71875 15.125 C 8.449219 15.609375 8.625 16.21875 9.109375 16.484375 C 9.59375 16.753906 10.203125 16.578125 10.46875 16.09375 C 12.105469 13.164063 17.296875 9.953125 23.90625 8.59375 C 29.257813 7.523438 34.109375 7.828125 37.25 9.03125 C 37.769531 9.230469 38.347656 8.972656 38.546875 8.453125 C 38.746094 7.933594 38.488281 7.355469 37.96875 7.15625 C 36.140625 6.457031 33.917969 6.039063 31.46875 5.9375 C 30.855469 5.910156 30.234375 5.921875 29.59375 5.9375 Z M 18.28125 39.28125 C 17.996094 39.335938 17.75 39.515625 17.605469 39.765625 C 17.460938 40.019531 17.433594 40.320313 17.53125 40.59375 C 17.53125 40.59375 17.992188 42.042969 19.3125 43.40625 C 20.632813 44.769531 22.910156 46.09375 26.3125 46.09375 C 26.671875 46.097656 27.007813 45.910156 27.191406 45.597656 C 27.371094 45.285156 27.371094 44.902344 27.191406 44.589844 C 27.007813 44.277344 26.671875 44.089844 26.3125 44.09375 C 23.417969 44.09375 21.753906 43.039063 20.75 42 C 19.746094 40.960938 19.46875 40 19.46875 40 C 19.332031 39.523438 18.867188 39.214844 18.375 39.28125 C 18.34375 39.28125 18.3125 39.28125 18.28125 39.28125 Z M 19.125 46.1875 C 18.902344 46.210938 18.691406 46.3125 18.53125 46.46875 C 18.53125 46.46875 16.789063 48 14.1875 48 C 13.828125 47.996094 13.492188 48.183594 13.308594 48.496094 C 13.128906 48.808594 13.128906 49.191406 13.308594 49.503906 C 13.492188 49.816406 13.828125 50.003906 14.1875 50 C 17.585938 50 19.875 47.9375 19.875 47.9375 C 20.203125 47.652344 20.308594 47.1875 20.136719 46.789063 C 19.964844 46.390625 19.558594 46.148438 19.125 46.1875 Z"/></svg>