<svg fill="#000000" xmlns="http://www.w3.org/2000/svg"  viewBox="0 0 50 50" width="50px" height="50px"><path d="M 31 9 C 26.259259 9 22.491652 10.744212 19.478516 13.298828 C 16.465379 15.853444 14.167931 19.194885 12.148438 22.476562 C 10.128943 25.758242 8.3784564 28.992772 6.5820312 31.328125 C 4.7856062 33.663478 3.0666667 35 1 35 A 1.0001 1.0001 0 1 0 1 37 C 3.9333333 37 6.2143938 35.086522 8.1679688 32.546875 C 10.121544 30.007228 11.871057 26.741759 13.851562 23.523438 C 15.832069 20.305115 18.034621 17.146556 20.771484 14.826172 C 23.508348 12.505788 26.740741 11 31 11 C 32.471154 11 34.873657 11.369975 36.765625 12.330078 C 38.657593 13.290181 40 14.659091 40 17 C 40 20 35.380635 21.149021 33.869141 18.503906 A 1.0001 1.0001 0 0 0 32.248047 18.341797 C 31.495424 19.201937 30.875058 19.462217 30.353516 19.501953 C 29.831973 19.541693 29.31075 19.349578 28.792969 18.955078 C 28.275187 18.560578 27.798343 17.970072 27.474609 17.388672 C 27.150875 16.807272 27 16.208333 27 16 A 1.0001 1.0001 0 1 0 25 16 C 25 16.791667 25.286625 17.567728 25.728516 18.361328 C 26.170407 19.154928 26.787313 19.939422 27.582031 20.544922 C 28.004628 20.8669 28.491148 21.132282 29.019531 21.304688 C 29.211697 25.573838 31.594724 29.445092 35.126953 32.251953 C 38.812011 35.180258 43.766667 37 49 37 A 1.0001 1.0001 0 1 0 49 35 C 44.233333 35 39.687989 33.319742 36.373047 30.685547 C 33.249676 28.203582 31.266531 24.914216 31.044922 21.396484 C 31.669675 21.225807 32.284258 20.860927 32.880859 20.382812 C 35.827055 23.46112 42 21.588588 42 17 C 42 13.840909 39.967407 11.709819 37.671875 10.544922 C 35.376343 9.3800248 32.778846 9 31 9 z M 24.984375 22.986328 A 1.0001 1.0001 0 0 0 24 24 C 24 26.333333 25.105654 28.714403 26.550781 30.816406 C 27.995909 32.91841 29.795971 34.73247 31.445312 35.832031 A 1.0001 1.0001 0 1 0 32.554688 34.167969 C 31.20403 33.26753 29.504091 31.58159 28.199219 29.683594 C 26.894346 27.785597 26 25.666667 26 24 A 1.0001 1.0001 0 0 0 24.984375 22.986328 z M 19.013672 39.984375 C 18.627672 39.984375 18.271422 40.2115 18.107422 40.5625 C 18.107422 40.5625 16.369672 44.001953 13.013672 44.001953 C 9.6576719 44.001953 7.9199219 40.5625 7.9199219 40.5625 C 7.7359219 40.1835 7.3379219 39.956047 6.9199219 39.998047 C 6.8889219 39.999047 6.8571719 40 6.8261719 40 C 6.5101719 40.063 6.2444219 40.2695 6.1074219 40.5625 C 6.1074219 40.5625 4.3186719 44.001953 1.0136719 44.001953 C 0.65467188 43.997953 0.31876563 44.184094 0.13476562 44.496094 C -0.045234375 44.809094 -0.045234375 45.192859 0.13476562 45.505859 C 0.31876563 45.818859 0.65467188 46.005953 1.0136719 46.001953 C 4.4236719 46.001953 6.1266719 43.96125 7.0136719 42.65625 C 7.8966719 43.96525 9.5836719 46.001953 13.013672 46.001953 C 16.443672 46.001953 18.130672 43.96525 19.013672 42.65625 C 19.892672 43.96525 21.583672 46.001953 25.013672 46.001953 C 28.443672 46.001953 30.134672 43.96525 31.013672 42.65625 C 31.892672 43.96525 33.579672 46.001953 37.013672 46.001953 C 40.447672 46.001953 42.134672 43.96525 43.013672 42.65625 C 43.896672 43.96125 45.599672 46.001953 49.013672 46.001953 C 49.372672 46.005953 49.708578 45.817859 49.892578 45.505859 C 50.072578 45.192859 50.072578 44.809094 49.892578 44.496094 C 49.708578 44.183094 49.372672 43.997953 49.013672 44.001953 C 45.700672 44.001953 43.919922 40.5625 43.919922 40.5625 C 43.755922 40.2105 43.399672 39.984375 43.013672 39.984375 C 42.627672 39.984375 42.271422 40.2115 42.107422 40.5625 C 42.107422 40.5625 40.373672 44.001953 37.013672 44.001953 C 33.653672 44.001953 31.919922 40.5625 31.919922 40.5625 C 31.755922 40.2105 31.399672 39.984375 31.013672 39.984375 C 30.627672 39.984375 30.271422 40.2115 30.107422 40.5625 C 30.107422 40.5625 28.373672 44.001953 25.013672 44.001953 C 21.653672 44.001953 19.919922 40.5625 19.919922 40.5625 C 19.755922 40.2105 19.399672 39.984375 19.013672 39.984375 z"/></svg>