<?xml version="1.0" encoding="UTF-8" standalone="no"?>
<!DOCTYPE svg PUBLIC "-//W3C//DTD SVG 1.1//EN" "http://www.w3.org/Graphics/SVG/1.1/DTD/svg11.dtd">
<svg width="100%" height="100%" viewBox="0 0 512 299" version="1.1" xmlns="http://www.w3.org/2000/svg" xmlns:xlink="http://www.w3.org/1999/xlink" xml:space="preserve" xmlns:serif="http://www.serif.com/" style="fill-rule:evenodd;clip-rule:evenodd;stroke-linejoin:round;stroke-miterlimit:2;">
    <g transform="matrix(1,0,0,1,0,-106.666)">
        <g>
            <path d="M123.733,130.133C106.666,113.066 34.133,108.8 10.666,106.666C8.533,106.666 6.399,106.666 4.266,108.799C2.133,110.933 0,115.2 0,117.333L0,309.333C0,315.733 4.267,320 10.667,320L74.667,320C78.934,320 83.2,317.867 85.334,313.6C85.334,307.2 123.734,194.133 128.001,138.667C128,136.533 128,132.267 123.733,130.133Z" style="fill:rgb(40,79,97);fill-rule:nonzero;"/>
        </g>
        <g>
            <path d="M352,181.333C330.667,174.933 311.467,166.4 294.4,160C256,142.933 238.933,151.467 204.8,185.6C189.867,200.533 179.2,221.867 181.333,230.4C181.333,232.533 181.333,232.533 185.6,234.667C196.267,238.934 211.2,241.067 226.133,217.6C228.266,215.467 230.4,213.333 234.666,213.333C241.066,213.333 243.199,211.2 249.599,209.066C253.866,206.933 258.132,204.799 264.532,202.666L268.799,202.666C270.932,202.666 275.199,204.799 277.332,204.799C288,215.467 307.2,230.4 326.4,247.467C356.267,270.934 386.133,296.534 401.067,315.734L403.2,315.734C388.267,273.067 362.667,200.533 352,181.333Z" style="fill:rgb(40,79,97);fill-rule:nonzero;"/>
        </g>
        <g>
            <path d="M501.333,128C418.133,128 371.2,149.333 369.066,149.333C366.933,151.466 364.799,153.6 362.666,155.733C362.666,157.866 362.666,162.133 364.799,164.266C377.599,185.599 420.266,302.933 426.666,332.799C428.799,337.066 433.066,341.332 437.333,341.332L501.333,341.332C507.733,341.332 512,337.065 512,330.665L512,138.665C512,132.267 507.733,128 501.333,128Z" style="fill:rgb(40,79,97);fill-rule:nonzero;"/>
        </g>
        <g>
            <path d="M386.133,337.067C377.6,317.867 341.333,290.134 309.333,264.534C292.267,249.6 275.2,236.8 262.4,226.133C260.267,228.266 256,228.266 256,230.4C249.6,232.533 247.467,234.667 238.933,234.667C221.867,256 200.533,264.533 177.067,256C166.4,253.867 160,245.333 157.867,236.8C153.6,215.467 172.8,185.6 187.734,170.667L145.067,170.667C136.534,213.334 121.6,268.8 110.934,298.667C119.467,307.2 128.001,317.867 134.401,322.134C174.934,356.267 221.868,390.401 230.401,396.801C236.801,401.068 249.601,405.334 256.001,405.334L262.401,405.334L228.267,371.2C224,366.933 224,360.533 228.267,356.267C232.534,352.001 238.934,352 243.2,356.267L285.867,398.934C290.134,403.201 294.4,401.067 298.667,401.067C305.067,398.934 307.2,394.667 309.334,388.267L260.267,339.2C256,334.933 256,328.533 260.267,324.267C264.534,320.001 270.934,320 275.2,324.267L328.533,377.6C330.666,379.733 339.2,379.733 345.6,377.6C347.733,375.467 352,373.333 354.133,369.067L294.4,309.333C290.133,305.066 290.133,298.666 294.4,294.4C298.667,290.134 305.067,290.133 309.333,294.4L371.2,356.267C375.467,358.4 379.733,356.267 384,354.134C386.133,352 390.4,345.6 386.133,337.067Z" style="fill:rgb(40,79,97);fill-rule:nonzero;"/>
        </g>
    </g>
</svg>
