<?xml version="1.0" encoding="utf-8"?>
<!-- Generator: Adobe Illustrator 19.2.1, SVG Export Plug-In . SVG Version: 6.00 Build 0)  -->
<svg version="1.1" id="Layer_1" xmlns="http://www.w3.org/2000/svg" xmlns:xlink="http://www.w3.org/1999/xlink" x="0px" y="0px"
	 viewBox="0 0 242.9 243.1" style="enable-background:new 0 0 242.9 243.1;" xml:space="preserve">
<style type="text/css">
	.st0{fill:#FFFFFF;}
	.st1{fill:#EB1D39;}
	.st2{fill:#005891;}
</style>
<g>
	<path class="st0" d="M207.5,207.5C160,255,83,255,35.6,207.5C-11.9,160-11.9,83,35.6,35.6c47.5-47.5,124.5-47.5,171.9,0
		C255,83.1,255,160.1,207.5,207.5"/>
	<path class="st1" d="M189.2,31.3c-18.9-14.2-42.3-22.6-67.6-22.6C59.3,8.8,8.8,59.3,8.8,121.5c0,25.1,8.2,48.2,22,66.9
		C106.6,166.4,166.5,106.9,189.2,31.3"/>
	<path class="st2" d="M216.2,60.2c2.3,7.4,3.5,15.2,3.5,23.3c0,26.2-12.9,49.2-32.4,63.6c-34.1,25.1-83.7,25.1-152.2,46.7
		c20.7,24.7,51.8,40.5,86.5,40.5c62.3,0,112.8-50.5,112.8-112.8C234.3,98.9,227.7,77.9,216.2,60.2"/>
</g>
</svg>
