<?xml version="1.0" encoding="UTF-8" standalone="no"?>
<!DOCTYPE svg PUBLIC "-//W3C//DTD SVG 1.1//EN" "http://www.w3.org/Graphics/SVG/1.1/DTD/svg11.dtd">
<svg width="100%" height="100%" viewBox="0 0 314 197" version="1.1" xmlns="http://www.w3.org/2000/svg" xmlns:xlink="http://www.w3.org/1999/xlink" xml:space="preserve" xmlns:serif="http://www.serif.com/" style="fill-rule:evenodd;clip-rule:evenodd;stroke-linejoin:round;stroke-miterlimit:2;">
    <g transform="matrix(1,0,0,1,-374.186,-300.278)">
        <g transform="matrix(-1,-1.22465e-16,7.69496e-17,-0.628341,1061.46,611.558)">
            <path d="M526.57,190.634C527.578,188.617 529.109,187.442 530.728,187.442C532.348,187.442 533.878,188.617 534.887,190.634C556.238,233.337 653.583,428.027 680.408,481.677C681.679,484.218 681.923,487.692 681.037,490.617C680.15,493.542 678.29,495.401 676.25,495.401C627.765,495.401 433.692,495.401 385.207,495.401C383.166,495.401 381.306,493.542 380.42,490.617C379.534,487.692 379.778,484.218 381.048,481.677C407.873,428.027 505.219,233.337 526.57,190.634Z"/>
        </g>
    </g>
</svg>
