<?xml version="1.0" encoding="UTF-8" standalone="no"?>
<!DOCTYPE svg PUBLIC "-//W3C//DTD SVG 1.1//EN" "http://www.w3.org/Graphics/SVG/1.1/DTD/svg11.dtd">
<svg width="100%" height="100%" viewBox="0 0 124 124" version="1.1" xmlns="http://www.w3.org/2000/svg" xmlns:xlink="http://www.w3.org/1999/xlink" xml:space="preserve" xmlns:serif="http://www.serif.com/" style="fill-rule:evenodd;clip-rule:evenodd;stroke-linejoin:round;stroke-miterlimit:2;">
    <g transform="matrix(1,0,0,1,-8063,-19211)">
        <g transform="matrix(0.590476,0,0,0.590476,3301.99,7867.36)">
            <rect x="8063" y="19211" width="210" height="210" style="fill:rgb(208,208,208);fill-opacity:0;"/>
            <path d="M8273,19211L8063,19211L8063,19421L8273,19421L8273,19211ZM8249.29,19234.7L8249.29,19397.3C8249.29,19397.3 8086.71,19397.3 8086.71,19397.3C8086.71,19397.3 8086.71,19234.7 8086.71,19234.7L8249.29,19234.7Z"/>
        </g>
        <g transform="matrix(0.590476,0,0,0.682927,3301.99,6091.29)">
            <rect x="8063" y="19211" width="210" height="41"/>
            <path d="M8273,19211L8063,19211L8063,19252L8273,19252L8273,19211ZM8264.53,19218.3L8264.53,19244.7C8264.53,19244.7 8071.47,19244.7 8071.47,19244.7C8071.47,19244.7 8071.47,19218.3 8071.47,19218.3L8264.53,19218.3Z"/>
        </g>
    </g>
</svg>
