<svg xmlns="http://www.w3.org/2000/svg"  viewBox="0 0 48 48" width="48px" height="48px"><path d="M 40.470703 5.9863281 A 1.50015 1.50015 0 0 0 40.308594 6 L 30.5 6 A 1.50015 1.50015 0 1 0 30.5 9 L 36.878906 9 L 9 36.878906 L 9 30.5 A 1.50015 1.50015 0 1 0 6 30.5 L 6 40.310547 A 1.50015 1.50015 0 0 0 7.6914062 42 L 17.5 42 A 1.50015 1.50015 0 1 0 17.5 39 L 11.121094 39 L 39 11.121094 L 39 17.5 A 1.50015 1.50015 0 1 0 42 17.5 L 42 7.6894531 A 1.50015 1.50015 0 0 0 40.470703 5.9863281 z M 7.5 6 A 1.50015 1.50015 0 0 0 7.2148438 6.0273438 A 1.50015 1.50015 0 0 0 6.9648438 6.0996094 C 6.9498064 6.1053501 6.9348057 6.1109451 6.9199219 6.1171875 A 1.50015 1.50015 0 0 0 6.9160156 6.1191406 A 1.50015 1.50015 0 0 0 6.6933594 6.2363281 C 6.6853621 6.2414542 6.6778421 6.2466601 6.6699219 6.2519531 A 1.50015 1.50015 0 0 0 6.4492188 6.4316406 C 6.4461999 6.4346098 6.442453 6.4364532 6.4394531 6.4394531 C 6.4381226 6.4407813 6.4368713 6.4420274 6.4355469 6.4433594 A 1.50015 1.50015 0 0 0 6.2578125 6.6621094 C 6.2533445 6.6687239 6.2484915 6.6749711 6.2441406 6.6816406 A 1.50015 1.50015 0 0 0 6.1113281 6.9355469 A 1.50015 1.50015 0 0 0 6.0332031 7.1914062 C 6.030878 7.2025301 6.0274611 7.213445 6.0253906 7.2246094 A 1.50015 1.50015 0 0 0 6 7.5 L 6 17.5 A 1.50015 1.50015 0 1 0 9 17.5 L 9 11.121094 L 20.464844 22.585938 L 22.585938 20.464844 L 11.121094 9 L 17.5 9 A 1.50015 1.50015 0 1 0 17.5 6 L 7.5 6 z M 27.535156 25.414062 L 25.414062 27.535156 L 36.878906 39 L 30.5 39 A 1.50015 1.50015 0 1 0 30.5 42 L 40.5 42 A 1.50015 1.50015 0 0 0 40.78125 41.972656 A 1.50015 1.50015 0 0 0 40.787109 41.972656 C 40.787722 41.972538 40.78845 41.972775 40.789062 41.972656 A 1.50015 1.50015 0 0 0 41.033203 41.900391 C 41.048876 41.894447 41.064572 41.8893 41.080078 41.882812 C 41.081409 41.882256 41.082655 41.88142 41.083984 41.880859 A 1.50015 1.50015 0 0 0 41.294922 41.769531 C 41.309109 41.760647 41.323943 41.753545 41.337891 41.744141 A 1.50015 1.50015 0 0 0 41.548828 41.570312 A 1.50015 1.50015 0 0 0 41.564453 41.556641 A 1.50015 1.50015 0 0 0 41.730469 41.355469 C 41.740914 41.340485 41.751884 41.32582 41.761719 41.310547 A 1.50015 1.50015 0 0 0 41.765625 41.302734 A 1.50015 1.50015 0 0 0 41.875 41.095703 C 41.881245 41.081281 41.888761 41.067308 41.894531 41.052734 A 1.50015 1.50015 0 0 0 41.964844 40.810547 C 41.967357 40.79862 41.972389 40.787365 41.974609 40.775391 A 1.50015 1.50015 0 0 0 42 40.5 L 42 30.5 A 1.50015 1.50015 0 0 0 40.476562 28.978516 A 1.50015 1.50015 0 0 0 39 30.5 L 39 36.878906 L 27.535156 25.414062 z"/></svg>