<?xml version="1.0" encoding="UTF-8" standalone="no"?>
<!DOCTYPE svg PUBLIC "-//W3C//DTD SVG 1.1//EN" "http://www.w3.org/Graphics/SVG/1.1/DTD/svg11.dtd">
<svg width="100%" height="100%" viewBox="0 0 19 22" version="1.1" xmlns="http://www.w3.org/2000/svg" xmlns:xlink="http://www.w3.org/1999/xlink" xml:space="preserve" xmlns:serif="http://www.serif.com/" style="fill-rule:evenodd;clip-rule:evenodd;stroke-linejoin:round;stroke-miterlimit:2;">
    <g transform="matrix(1,0,0,1,761.349,-25124.2)">
        <g transform="matrix(5.15826e-17,0.934783,-1.14681,6.40183e-17,28098.6,25811.3)">
            <path d="M-724.209,25150.4C-724.062,25150.2 -723.792,25150.1 -723.5,25150.1C-723.208,25150.1 -722.938,25150.2 -722.791,25150.4C-720.737,25153.2 -714.798,25161.5 -712.725,25164.4C-712.576,25164.6 -712.574,25164.9 -712.721,25165.1C-712.867,25165.3 -713.139,25165.4 -713.434,25165.4C-717.561,25165.4 -729.439,25165.4 -733.566,25165.4C-733.861,25165.4 -734.133,25165.3 -734.279,25165.1C-734.426,25164.9 -734.424,25164.6 -734.275,25164.4C-732.202,25161.5 -726.263,25153.2 -724.209,25150.4Z" style="fill:url(#_Linear1);"/>
        </g>
    </g>
    <defs>
        <linearGradient id="_Linear1" x1="0" y1="0" x2="1" y2="0" gradientUnits="userSpaceOnUse" gradientTransform="matrix(16.0465,-7.91451e-17,9.18051e-17,13.8337,-732.058,25163.2)"><stop offset="0" style="stop-color:rgb(41,41,41);stop-opacity:1"/><stop offset="1" style="stop-color:rgb(66,66,66);stop-opacity:1"/></linearGradient>
    </defs>
</svg>
