<?xml version="1.0" encoding="UTF-8" standalone="no"?>
<!DOCTYPE svg PUBLIC "-//W3C//DTD SVG 1.1//EN" "http://www.w3.org/Graphics/SVG/1.1/DTD/svg11.dtd">
<svg width="100%" height="100%" viewBox="0 0 198 198" version="1.1" xmlns="http://www.w3.org/2000/svg" xmlns:xlink="http://www.w3.org/1999/xlink" xml:space="preserve" xmlns:serif="http://www.serif.com/" style="fill-rule:evenodd;clip-rule:evenodd;stroke-linejoin:round;stroke-miterlimit:2;">
    <g transform="matrix(1,0,0,1,7.00158,7.00831)">
        <g transform="matrix(1,0,0,1,-951,-3696)">
            <g transform="matrix(0.999998,0,0,0.999999,3.0278e-19,-0.00359342)">
                <g>
                    <circle cx="1043" cy="3788" r="92" style="fill:none;stroke:white;stroke-width:14px;"/>
                </g>
            </g>
            <g transform="matrix(128.114,0,0,132.829,1004.56,3838.47)">
                <g>
                    <g>
                        <path d="M0.099,-0L0.099,-0.12L0.235,-0.12L0.235,-0.4L0.115,-0.4L0.115,-0.52L0.381,-0.52L0.381,-0.12L0.501,-0.12L0.501,-0L0.099,-0ZM0.3,-0.58C0.288,-0.58 0.276,-0.582 0.264,-0.586C0.252,-0.589 0.242,-0.595 0.234,-0.604C0.225,-0.612 0.219,-0.622 0.216,-0.634C0.212,-0.646 0.21,-0.658 0.21,-0.67C0.21,-0.682 0.212,-0.694 0.216,-0.706C0.219,-0.718 0.225,-0.728 0.234,-0.737C0.242,-0.745 0.252,-0.751 0.264,-0.755C0.276,-0.758 0.288,-0.76 0.3,-0.76C0.312,-0.76 0.324,-0.758 0.336,-0.755C0.348,-0.751 0.358,-0.745 0.367,-0.737C0.375,-0.728 0.381,-0.718 0.385,-0.706C0.388,-0.694 0.39,-0.682 0.39,-0.67C0.39,-0.658 0.388,-0.646 0.385,-0.634C0.381,-0.622 0.375,-0.612 0.367,-0.604C0.358,-0.595 0.348,-0.589 0.336,-0.586C0.324,-0.582 0.312,-0.58 0.3,-0.58Z" style="fill:white;fill-rule:nonzero;"/>
                    </g>
                </g>
            </g>
        </g>
    </g>
</svg>
